<?xml version="1.0" encoding="UTF-8" standalone="no"?>
<svg
   xmlns:dc="http://purl.org/dc/elements/1.1/"
   xmlns:cc="http://creativecommons.org/ns#"
   xmlns:rdf="http://www.w3.org/1999/02/22-rdf-syntax-ns#"
   xmlns:svg="http://www.w3.org/2000/svg"
   xmlns="http://www.w3.org/2000/svg"
   xmlns:sodipodi="http://sodipodi.sourceforge.net/DTD/sodipodi-0.dtd"
   xmlns:inkscape="http://www.inkscape.org/namespaces/inkscape"
   width="431.00003"
   height="172"
   viewBox="0 0 114.03542 45.508334"
   version="1.1"
   id="svg8"
   inkscape:version="1.0.1 (3bc2e813f5, 2020-09-07)"
   sodipodi:docname="2021-01-07 Logo.svg">
  <style
     id="style833"></style>
  <defs
     id="defs2" />
  <sodipodi:namedview
     id="base"
     pagecolor="#191919"
     bordercolor="#666666"
     borderopacity="1.0"
     inkscape:pageopacity="1"
     inkscape:pageshadow="2"
     inkscape:zoom="1.4142136"
     inkscape:cx="206.78086"
     inkscape:cy="130.01392"
     inkscape:document-units="px"
     inkscape:current-layer="layer1"
     showgrid="false"
     showguides="true"
     units="px"
     showborder="false"
     inkscape:guide-bbox="true"
     inkscape:window-width="1920"
     inkscape:window-height="1027"
     inkscape:window-x="-8"
     inkscape:window-y="-8"
     inkscape:window-maximized="1"
     inkscape:snap-object-midpoints="true"
     inkscape:snap-center="true"
     inkscape:snap-intersection-paths="true"
     inkscape:object-paths="true"
     inkscape:snap-smooth-nodes="true"
     inkscape:snap-midpoints="true"
     inkscape:snap-grids="true"
     inkscape:document-rotation="0"
     inkscape:snap-perpendicular="true"
     inkscape:snap-tangential="true"
     inkscape:showpageshadow="false"
     inkscape:pagecheckerboard="false"
     guidecolor="#432200"
     guideopacity="0.49803922"
     guidehicolor="#8a0000"
     guidehiopacity="0.49803922"
     inkscape:snap-bbox="true"
     inkscape:bbox-paths="true"
     inkscape:snap-bbox-edge-midpoints="true"
     inkscape:bbox-nodes="true"
     inkscape:snap-bbox-midpoints="true"
     inkscape:snap-global="true">
    <inkscape:grid
       type="xygrid"
       id="grid815"
       originx="367.4836"
       originy="125.04491" />
    <sodipodi:guide
       position="0,296.99999"
       orientation="-1,0"
       id="guide816"
       inkscape:locked="true"
       inkscape:label=""
       inkscape:color="rgb(255,15,240)" />
    <sodipodi:guide
       position="0,296.99999"
       orientation="0,1"
       id="guide818"
       inkscape:locked="true"
       inkscape:label=""
       inkscape:color="rgb(255,15,240)" />
    <sodipodi:guide
       position="10.421952,39.81035"
       orientation="0,-1"
       id="guide890" />
    <sodipodi:guide
       position="10.519354,5.0867405"
       orientation="0,-1"
       id="guide892" />
    <sodipodi:guide
       position="97.401427,28.316981"
       orientation="0,-1"
       id="guide894" />
    <sodipodi:guide
       position="4.0421591,39.810351"
       orientation="1,0"
       id="guide896" />
    <sodipodi:guide
       position="10.519354,28.316983"
       orientation="1,0"
       id="guide898" />
    <sodipodi:guide
       position="12.51609,20.232663"
       orientation="1,0"
       id="guide927" />
    <sodipodi:guide
       position="18.999818,28.316982"
       orientation="1,0"
       id="guide929" />
    <sodipodi:guide
       position="26.791938,28.316982"
       orientation="1,0"
       id="guide931" />
    <sodipodi:guide
       position="34.090499,16.482708"
       orientation="1,0"
       id="guide933" />
    <sodipodi:guide
       position="39.983285,22.911202"
       orientation="0,-1"
       id="guide935" />
    <sodipodi:guide
       position="40.665095,10.49252"
       orientation="0,-1"
       id="guide937" />
    <sodipodi:guide
       position="45.656918,18.430736"
       orientation="1,0"
       id="guide939" />
    <sodipodi:guide
       position="39.844424,28.825144"
       orientation="0,-1"
       id="guide945" />
    <sodipodi:guide
       position="27.391797,16.169681"
       orientation="1,0"
       id="guide947" />
    <sodipodi:guide
       position="39.109148,4.5863461"
       orientation="0,-1"
       id="guide949" />
    <sodipodi:guide
       position="93.748861,20.636183"
       orientation="1,0"
       id="guide963" />
    <sodipodi:guide
       position="87.271663,21.304082"
       orientation="1,0"
       id="guide965" />
    <sodipodi:guide
       position="102.9533,21.304083"
       orientation="1,0"
       id="guide967" />
    <sodipodi:guide
       position="109.4305,16.113974"
       orientation="1,0"
       id="guide971" />
    <sodipodi:guide
       position="93.748858,14.291178"
       orientation="0,-1"
       id="guide973" />
  </sodipodi:namedview>
  <metadata
     id="metadata5">
    <rdf:RDF>
      <cc:Work
         rdf:about="">
        <dc:format>image/svg+xml</dc:format>
        <dc:type
           rdf:resource="http://purl.org/dc/dcmitype/StillImage" />
        <dc:title></dc:title>
        <dc:creator>
          <cc:Agent>
            <dc:title>David Von Leon</dc:title>
          </cc:Agent>
        </dc:creator>
      </cc:Work>
    </rdf:RDF>
  </metadata>
  <g
     inkscape:label="logo"
     inkscape:groupmode="layer"
     id="layer1"
     transform="translate(367.48361,125.04491)">
    <path
       id="path975"
       style="fill:#ffffff;stroke-width:20;stroke-linecap:square;paint-order:markers fill stroke;stop-color:#000000;fill-opacity:1"
       d="M 15.277344 21.535156 L 15.277344 152.77539 L 39.757812 152.77539 L 39.757812 116.14453 L 47.304688 116.14453 L 72.337891 152.77539 L 101.26172 152.77539 L 66.816406 105.83789 L 101.26172 64.974609 L 71.810547 64.974609 L 47.304688 95.529297 L 39.757812 95.529297 L 39.757812 21.535156 L 15.277344 21.535156 z M 282.26562 21.535156 L 282.26562 73.216797 A 42.063482 45.805603 0 0 0 255.84766 63.054688 A 42.063482 45.805603 0 0 0 213.7832 108.85938 A 42.063482 45.805603 0 0 0 255.84766 154.66602 A 42.063482 45.805603 0 0 0 282.26562 144.50195 L 282.26562 152.77539 L 306.74609 152.77539 L 306.74609 21.535156 L 282.26562 21.535156 z M 145.5918 63.054688 A 42.063482 45.805603 0 0 0 103.52734 108.85938 A 42.063482 45.805603 0 0 0 145.5918 154.66602 A 42.063482 45.805603 0 0 0 172.5625 144.00977 L 172.5625 152.77539 L 197.04297 152.77539 L 197.04297 64.974609 L 172.5625 64.974609 L 172.5625 73.710938 A 42.063482 45.805603 0 0 0 145.5918 63.054688 z M 329.8457 64.974609 L 329.8457 117.98633 L 329.92383 117.98633 A 41.916295 34.603355 0 0 0 329.8457 120.0625 A 41.916295 34.603355 0 0 0 371.76172 154.66602 A 41.916295 34.603355 0 0 0 413.67773 120.0625 A 41.916295 34.603355 0 0 0 413.5957 117.91016 L 413.5957 64.974609 L 389.11523 64.974609 L 389.11523 117.98633 L 389.03516 117.98633 A 17.394229 15.882239 0 0 1 371.7207 132.34375 A 17.394229 15.882239 0 0 1 354.4082 117.98633 L 354.32617 117.98633 L 354.32617 64.974609 L 329.8457 64.974609 z M 151.07227 85.40625 A 21.857803 23.468376 0 0 1 172.5625 104.59375 L 172.5625 113.15625 A 21.857803 23.468376 0 0 1 151.07227 132.34375 A 21.857803 23.468376 0 0 1 129.21484 108.875 A 21.857803 23.468376 0 0 1 151.07227 85.40625 z M 261.32812 85.40625 A 21.857803 23.468376 0 0 1 282.26562 102.14062 L 282.26562 115.60547 A 21.857803 23.468376 0 0 1 261.32812 132.34375 A 21.857803 23.468376 0 0 1 239.4707 108.875 A 21.857803 23.468376 0 0 1 261.32812 85.40625 z "
       transform="matrix(0.26458333,0,0,0.26458333,-367.48361,-125.04491)" />
  </g>
</svg>
